<mxfile host="app.diagrams.net" modified="2021-08-18T06:51:44.949Z" agent="5.0 (Windows NT 6.1; Win64; x64) AppleWebKit/537.36 (KHTML, like Gecko) Chrome/79.0.3945.88 Safari/537.36" etag="5t1Y38UWzbs9gNocKS4k" version="14.9.7" type="github">
  <diagram id="7kC9viG3TArmNpTOzyJ8" name="Page-1">
    <mxGraphModel dx="1068" dy="433" grid="1" gridSize="10" guides="1" tooltips="1" connect="1" arrows="1" fold="1" page="1" pageScale="1" pageWidth="3300" pageHeight="4681" math="0" shadow="0">
      <root>
        <mxCell id="0" />
        <mxCell id="1" parent="0" />
        <mxCell id="HefbfKOfJk3_JUuj_Y7m-10" style="edgeStyle=orthogonalEdgeStyle;rounded=0;orthogonalLoop=1;jettySize=auto;html=1;exitX=1;exitY=0.5;exitDx=0;exitDy=0;entryX=0;entryY=0.5;entryDx=0;entryDy=0;" parent="1" source="HefbfKOfJk3_JUuj_Y7m-1" target="HefbfKOfJk3_JUuj_Y7m-2" edge="1">
          <mxGeometry relative="1" as="geometry" />
        </mxCell>
        <mxCell id="HefbfKOfJk3_JUuj_Y7m-1" value="" style="ellipse;whiteSpace=wrap;html=1;" parent="1" vertex="1">
          <mxGeometry x="50" y="305" width="50" height="30" as="geometry" />
        </mxCell>
        <mxCell id="HefbfKOfJk3_JUuj_Y7m-11" style="edgeStyle=orthogonalEdgeStyle;rounded=0;orthogonalLoop=1;jettySize=auto;html=1;exitX=1;exitY=0.5;exitDx=0;exitDy=0;entryX=0;entryY=0.5;entryDx=0;entryDy=0;" parent="1" source="HefbfKOfJk3_JUuj_Y7m-2" target="HefbfKOfJk3_JUuj_Y7m-3" edge="1">
          <mxGeometry relative="1" as="geometry" />
        </mxCell>
        <mxCell id="HefbfKOfJk3_JUuj_Y7m-33" style="edgeStyle=orthogonalEdgeStyle;rounded=0;orthogonalLoop=1;jettySize=auto;html=1;exitX=0.5;exitY=1;exitDx=0;exitDy=0;entryX=0.5;entryY=0;entryDx=0;entryDy=0;" parent="1" source="HefbfKOfJk3_JUuj_Y7m-2" target="HefbfKOfJk3_JUuj_Y7m-28" edge="1">
          <mxGeometry relative="1" as="geometry" />
        </mxCell>
        <mxCell id="HefbfKOfJk3_JUuj_Y7m-2" value="" style="ellipse;whiteSpace=wrap;html=1;" parent="1" vertex="1">
          <mxGeometry x="150" y="305" width="50" height="30" as="geometry" />
        </mxCell>
        <mxCell id="lBaTM03E_NYDaA1DDpVY-1" style="edgeStyle=orthogonalEdgeStyle;rounded=0;orthogonalLoop=1;jettySize=auto;html=1;exitX=1;exitY=0.5;exitDx=0;exitDy=0;" edge="1" parent="1" source="HefbfKOfJk3_JUuj_Y7m-3" target="HefbfKOfJk3_JUuj_Y7m-4">
          <mxGeometry relative="1" as="geometry" />
        </mxCell>
        <mxCell id="HefbfKOfJk3_JUuj_Y7m-3" value="" style="ellipse;whiteSpace=wrap;html=1;" parent="1" vertex="1">
          <mxGeometry x="250" y="305" width="50" height="30" as="geometry" />
        </mxCell>
        <mxCell id="HefbfKOfJk3_JUuj_Y7m-25" style="edgeStyle=orthogonalEdgeStyle;rounded=0;orthogonalLoop=1;jettySize=auto;html=1;exitX=0.5;exitY=0;exitDx=0;exitDy=0;entryX=0.5;entryY=1;entryDx=0;entryDy=0;" parent="1" source="HefbfKOfJk3_JUuj_Y7m-4" target="HefbfKOfJk3_JUuj_Y7m-22" edge="1">
          <mxGeometry relative="1" as="geometry" />
        </mxCell>
        <mxCell id="_ufB6UjlI4cqtm0IFFnp-21" style="edgeStyle=orthogonalEdgeStyle;rounded=0;orthogonalLoop=1;jettySize=auto;html=1;exitX=1;exitY=0.5;exitDx=0;exitDy=0;entryX=0;entryY=0.5;entryDx=0;entryDy=0;" parent="1" source="HefbfKOfJk3_JUuj_Y7m-4" target="HefbfKOfJk3_JUuj_Y7m-5" edge="1">
          <mxGeometry relative="1" as="geometry" />
        </mxCell>
        <mxCell id="HefbfKOfJk3_JUuj_Y7m-4" value="" style="ellipse;whiteSpace=wrap;html=1;" parent="1" vertex="1">
          <mxGeometry x="339" y="305" width="50" height="30" as="geometry" />
        </mxCell>
        <mxCell id="HefbfKOfJk3_JUuj_Y7m-14" style="edgeStyle=orthogonalEdgeStyle;rounded=0;orthogonalLoop=1;jettySize=auto;html=1;exitX=1;exitY=0.5;exitDx=0;exitDy=0;entryX=0;entryY=0.5;entryDx=0;entryDy=0;" parent="1" source="HefbfKOfJk3_JUuj_Y7m-5" target="HefbfKOfJk3_JUuj_Y7m-6" edge="1">
          <mxGeometry relative="1" as="geometry" />
        </mxCell>
        <mxCell id="HefbfKOfJk3_JUuj_Y7m-5" value="" style="ellipse;whiteSpace=wrap;html=1;" parent="1" vertex="1">
          <mxGeometry x="430" y="305" width="50" height="30" as="geometry" />
        </mxCell>
        <mxCell id="HefbfKOfJk3_JUuj_Y7m-16" style="edgeStyle=orthogonalEdgeStyle;rounded=0;orthogonalLoop=1;jettySize=auto;html=1;exitX=1;exitY=0.5;exitDx=0;exitDy=0;" parent="1" source="HefbfKOfJk3_JUuj_Y7m-6" target="HefbfKOfJk3_JUuj_Y7m-7" edge="1">
          <mxGeometry relative="1" as="geometry" />
        </mxCell>
        <mxCell id="HefbfKOfJk3_JUuj_Y7m-6" value="" style="ellipse;whiteSpace=wrap;html=1;" parent="1" vertex="1">
          <mxGeometry x="540" y="305" width="50" height="30" as="geometry" />
        </mxCell>
        <mxCell id="HefbfKOfJk3_JUuj_Y7m-18" style="edgeStyle=orthogonalEdgeStyle;rounded=0;orthogonalLoop=1;jettySize=auto;html=1;exitX=1;exitY=0.5;exitDx=0;exitDy=0;entryX=0;entryY=0.5;entryDx=0;entryDy=0;" parent="1" source="HefbfKOfJk3_JUuj_Y7m-7" target="HefbfKOfJk3_JUuj_Y7m-8" edge="1">
          <mxGeometry relative="1" as="geometry" />
        </mxCell>
        <mxCell id="HefbfKOfJk3_JUuj_Y7m-7" value="" style="ellipse;whiteSpace=wrap;html=1;" parent="1" vertex="1">
          <mxGeometry x="620" y="305" width="50" height="30" as="geometry" />
        </mxCell>
        <mxCell id="HefbfKOfJk3_JUuj_Y7m-19" style="edgeStyle=orthogonalEdgeStyle;rounded=0;orthogonalLoop=1;jettySize=auto;html=1;exitX=1;exitY=0.5;exitDx=0;exitDy=0;entryX=0;entryY=0.5;entryDx=0;entryDy=0;" parent="1" source="HefbfKOfJk3_JUuj_Y7m-8" target="HefbfKOfJk3_JUuj_Y7m-9" edge="1">
          <mxGeometry relative="1" as="geometry" />
        </mxCell>
        <mxCell id="HefbfKOfJk3_JUuj_Y7m-8" value="" style="ellipse;whiteSpace=wrap;html=1;" parent="1" vertex="1">
          <mxGeometry x="710" y="305" width="50" height="30" as="geometry" />
        </mxCell>
        <mxCell id="HefbfKOfJk3_JUuj_Y7m-9" value="" style="ellipse;whiteSpace=wrap;html=1;" parent="1" vertex="1">
          <mxGeometry x="800" y="305" width="50" height="30" as="geometry" />
        </mxCell>
        <mxCell id="HefbfKOfJk3_JUuj_Y7m-20" value="dev" style="text;html=1;strokeColor=none;fillColor=none;align=center;verticalAlign=middle;whiteSpace=wrap;rounded=0;" parent="1" vertex="1">
          <mxGeometry x="10" y="315" width="40" height="20" as="geometry" />
        </mxCell>
        <mxCell id="HefbfKOfJk3_JUuj_Y7m-26" style="edgeStyle=orthogonalEdgeStyle;rounded=0;orthogonalLoop=1;jettySize=auto;html=1;exitX=1;exitY=0.5;exitDx=0;exitDy=0;" parent="1" source="HefbfKOfJk3_JUuj_Y7m-22" target="HefbfKOfJk3_JUuj_Y7m-23" edge="1">
          <mxGeometry relative="1" as="geometry" />
        </mxCell>
        <mxCell id="HefbfKOfJk3_JUuj_Y7m-22" value="" style="ellipse;whiteSpace=wrap;html=1;fillColor=#000066;" parent="1" vertex="1">
          <mxGeometry x="340" y="240" width="50" height="30" as="geometry" />
        </mxCell>
        <mxCell id="HefbfKOfJk3_JUuj_Y7m-27" style="edgeStyle=orthogonalEdgeStyle;rounded=0;orthogonalLoop=1;jettySize=auto;html=1;exitX=1;exitY=0.5;exitDx=0;exitDy=0;" parent="1" source="HefbfKOfJk3_JUuj_Y7m-23" target="HefbfKOfJk3_JUuj_Y7m-24" edge="1">
          <mxGeometry relative="1" as="geometry" />
        </mxCell>
        <mxCell id="_ufB6UjlI4cqtm0IFFnp-32" style="edgeStyle=orthogonalEdgeStyle;rounded=0;orthogonalLoop=1;jettySize=auto;html=1;exitX=0.5;exitY=0;exitDx=0;exitDy=0;entryX=0.5;entryY=1;entryDx=0;entryDy=0;" parent="1" source="HefbfKOfJk3_JUuj_Y7m-23" target="_ufB6UjlI4cqtm0IFFnp-23" edge="1">
          <mxGeometry relative="1" as="geometry" />
        </mxCell>
        <mxCell id="HefbfKOfJk3_JUuj_Y7m-23" value="" style="ellipse;whiteSpace=wrap;html=1;fillColor=#000066;" parent="1" vertex="1">
          <mxGeometry x="420" y="240" width="50" height="30" as="geometry" />
        </mxCell>
        <mxCell id="_ufB6UjlI4cqtm0IFFnp-12" style="edgeStyle=orthogonalEdgeStyle;rounded=0;orthogonalLoop=1;jettySize=auto;html=1;exitX=1;exitY=0.5;exitDx=0;exitDy=0;entryX=0;entryY=0.5;entryDx=0;entryDy=0;" parent="1" source="HefbfKOfJk3_JUuj_Y7m-24" target="_ufB6UjlI4cqtm0IFFnp-10" edge="1">
          <mxGeometry relative="1" as="geometry" />
        </mxCell>
        <mxCell id="HefbfKOfJk3_JUuj_Y7m-24" value="" style="ellipse;whiteSpace=wrap;html=1;fillColor=#0000CC;" parent="1" vertex="1">
          <mxGeometry x="500" y="240" width="50" height="30" as="geometry" />
        </mxCell>
        <mxCell id="HefbfKOfJk3_JUuj_Y7m-34" style="edgeStyle=orthogonalEdgeStyle;rounded=0;orthogonalLoop=1;jettySize=auto;html=1;exitX=1;exitY=0.5;exitDx=0;exitDy=0;" parent="1" source="HefbfKOfJk3_JUuj_Y7m-28" target="HefbfKOfJk3_JUuj_Y7m-29" edge="1">
          <mxGeometry relative="1" as="geometry" />
        </mxCell>
        <mxCell id="HefbfKOfJk3_JUuj_Y7m-28" value="" style="ellipse;whiteSpace=wrap;html=1;fillColor=#660000;" parent="1" vertex="1">
          <mxGeometry x="150" y="380" width="50" height="30" as="geometry" />
        </mxCell>
        <mxCell id="HefbfKOfJk3_JUuj_Y7m-35" style="edgeStyle=orthogonalEdgeStyle;rounded=0;orthogonalLoop=1;jettySize=auto;html=1;exitX=1;exitY=0.5;exitDx=0;exitDy=0;entryX=0;entryY=0.5;entryDx=0;entryDy=0;" parent="1" source="HefbfKOfJk3_JUuj_Y7m-29" target="HefbfKOfJk3_JUuj_Y7m-30" edge="1">
          <mxGeometry relative="1" as="geometry" />
        </mxCell>
        <mxCell id="HefbfKOfJk3_JUuj_Y7m-29" value="" style="ellipse;whiteSpace=wrap;html=1;fillColor=#660000;" parent="1" vertex="1">
          <mxGeometry x="250" y="380" width="50" height="30" as="geometry" />
        </mxCell>
        <mxCell id="HefbfKOfJk3_JUuj_Y7m-37" style="edgeStyle=orthogonalEdgeStyle;rounded=0;orthogonalLoop=1;jettySize=auto;html=1;exitX=1;exitY=0.5;exitDx=0;exitDy=0;entryX=0;entryY=0.5;entryDx=0;entryDy=0;" parent="1" source="HefbfKOfJk3_JUuj_Y7m-30" target="HefbfKOfJk3_JUuj_Y7m-31" edge="1">
          <mxGeometry relative="1" as="geometry" />
        </mxCell>
        <mxCell id="HefbfKOfJk3_JUuj_Y7m-30" value="" style="ellipse;whiteSpace=wrap;html=1;fillColor=#FF9999;" parent="1" vertex="1">
          <mxGeometry x="339" y="380" width="50" height="30" as="geometry" />
        </mxCell>
        <mxCell id="HefbfKOfJk3_JUuj_Y7m-39" style="edgeStyle=orthogonalEdgeStyle;rounded=0;orthogonalLoop=1;jettySize=auto;html=1;exitX=1;exitY=0.5;exitDx=0;exitDy=0;entryX=0;entryY=0.5;entryDx=0;entryDy=0;" parent="1" source="HefbfKOfJk3_JUuj_Y7m-31" target="HefbfKOfJk3_JUuj_Y7m-32" edge="1">
          <mxGeometry relative="1" as="geometry" />
        </mxCell>
        <mxCell id="HefbfKOfJk3_JUuj_Y7m-31" value="" style="ellipse;whiteSpace=wrap;html=1;fillColor=#FF9999;" parent="1" vertex="1">
          <mxGeometry x="430" y="380" width="50" height="30" as="geometry" />
        </mxCell>
        <mxCell id="HefbfKOfJk3_JUuj_Y7m-32" value="" style="ellipse;whiteSpace=wrap;html=1;fillColor=#FF9999;" parent="1" vertex="1">
          <mxGeometry x="520" y="380" width="50" height="30" as="geometry" />
        </mxCell>
        <mxCell id="_ufB6UjlI4cqtm0IFFnp-1" value="&lt;b&gt;发布分支:&lt;/b&gt;基于dev拉取分支4.00.04B4" style="text;html=1;strokeColor=none;fillColor=none;align=center;verticalAlign=middle;whiteSpace=wrap;rounded=0;" parent="1" vertex="1">
          <mxGeometry x="115" y="240" width="205" height="20" as="geometry" />
        </mxCell>
        <mxCell id="_ufB6UjlI4cqtm0IFFnp-2" value="基于dev拉取分支4.00.03B4" style="text;html=1;strokeColor=none;fillColor=none;align=center;verticalAlign=middle;whiteSpace=wrap;rounded=0;" parent="1" vertex="1">
          <mxGeometry x="20" y="385" width="120" height="20" as="geometry" />
        </mxCell>
        <mxCell id="_ufB6UjlI4cqtm0IFFnp-3" value="基于4.00.03B4分支构建4.00.03版本" style="text;html=1;strokeColor=none;fillColor=none;align=center;verticalAlign=middle;whiteSpace=wrap;rounded=0;" parent="1" vertex="1">
          <mxGeometry x="320" y="450" width="140" height="20" as="geometry" />
        </mxCell>
        <mxCell id="_ufB6UjlI4cqtm0IFFnp-4" value="基于4.00.03B4分支构建4.00.03B4版本" style="text;html=1;strokeColor=none;fillColor=none;align=center;verticalAlign=middle;whiteSpace=wrap;rounded=0;" parent="1" vertex="1">
          <mxGeometry x="140" y="450" width="140" height="20" as="geometry" />
        </mxCell>
        <mxCell id="_ufB6UjlI4cqtm0IFFnp-18" style="edgeStyle=orthogonalEdgeStyle;rounded=0;orthogonalLoop=1;jettySize=auto;html=1;exitX=1;exitY=0.5;exitDx=0;exitDy=0;" parent="1" source="_ufB6UjlI4cqtm0IFFnp-10" target="_ufB6UjlI4cqtm0IFFnp-11" edge="1">
          <mxGeometry relative="1" as="geometry" />
        </mxCell>
        <mxCell id="_ufB6UjlI4cqtm0IFFnp-10" value="" style="ellipse;whiteSpace=wrap;html=1;fillColor=#0000CC;" parent="1" vertex="1">
          <mxGeometry x="580" y="240" width="50" height="30" as="geometry" />
        </mxCell>
        <mxCell id="lBaTM03E_NYDaA1DDpVY-18" style="edgeStyle=orthogonalEdgeStyle;rounded=0;orthogonalLoop=1;jettySize=auto;html=1;exitX=1;exitY=0.5;exitDx=0;exitDy=0;" edge="1" parent="1" source="_ufB6UjlI4cqtm0IFFnp-11">
          <mxGeometry relative="1" as="geometry">
            <mxPoint x="740" y="257" as="targetPoint" />
          </mxGeometry>
        </mxCell>
        <mxCell id="_ufB6UjlI4cqtm0IFFnp-11" value="" style="ellipse;whiteSpace=wrap;html=1;rotation=5;fillColor=#9999FF;" parent="1" vertex="1">
          <mxGeometry x="660" y="240" width="50" height="30" as="geometry" />
        </mxCell>
        <mxCell id="_ufB6UjlI4cqtm0IFFnp-33" style="edgeStyle=orthogonalEdgeStyle;rounded=0;orthogonalLoop=1;jettySize=auto;html=1;exitX=1;exitY=0.5;exitDx=0;exitDy=0;entryX=0;entryY=0.5;entryDx=0;entryDy=0;" parent="1" source="_ufB6UjlI4cqtm0IFFnp-23" target="_ufB6UjlI4cqtm0IFFnp-24" edge="1">
          <mxGeometry relative="1" as="geometry" />
        </mxCell>
        <mxCell id="_ufB6UjlI4cqtm0IFFnp-23" value="" style="ellipse;whiteSpace=wrap;html=1;fillColor=#330000;" parent="1" vertex="1">
          <mxGeometry x="420" y="160" width="50" height="30" as="geometry" />
        </mxCell>
        <mxCell id="_ufB6UjlI4cqtm0IFFnp-34" style="edgeStyle=orthogonalEdgeStyle;rounded=0;orthogonalLoop=1;jettySize=auto;html=1;exitX=1;exitY=0.5;exitDx=0;exitDy=0;" parent="1" source="_ufB6UjlI4cqtm0IFFnp-24" target="_ufB6UjlI4cqtm0IFFnp-25" edge="1">
          <mxGeometry relative="1" as="geometry" />
        </mxCell>
        <mxCell id="_ufB6UjlI4cqtm0IFFnp-38" style="edgeStyle=orthogonalEdgeStyle;rounded=0;orthogonalLoop=1;jettySize=auto;html=1;exitX=0.5;exitY=0;exitDx=0;exitDy=0;" parent="1" source="_ufB6UjlI4cqtm0IFFnp-24" target="_ufB6UjlI4cqtm0IFFnp-28" edge="1">
          <mxGeometry relative="1" as="geometry" />
        </mxCell>
        <mxCell id="_ufB6UjlI4cqtm0IFFnp-24" value="" style="ellipse;whiteSpace=wrap;html=1;fillColor=#330000;" parent="1" vertex="1">
          <mxGeometry x="500" y="160" width="50" height="30" as="geometry" />
        </mxCell>
        <mxCell id="_ufB6UjlI4cqtm0IFFnp-35" style="edgeStyle=orthogonalEdgeStyle;rounded=0;orthogonalLoop=1;jettySize=auto;html=1;exitX=1;exitY=0.5;exitDx=0;exitDy=0;entryX=0;entryY=0.5;entryDx=0;entryDy=0;" parent="1" source="_ufB6UjlI4cqtm0IFFnp-25" target="_ufB6UjlI4cqtm0IFFnp-26" edge="1">
          <mxGeometry relative="1" as="geometry" />
        </mxCell>
        <mxCell id="_ufB6UjlI4cqtm0IFFnp-25" value="" style="ellipse;whiteSpace=wrap;html=1;fillColor=#FF0000;" parent="1" vertex="1">
          <mxGeometry x="580" y="160" width="50" height="30" as="geometry" />
        </mxCell>
        <mxCell id="_ufB6UjlI4cqtm0IFFnp-37" style="edgeStyle=orthogonalEdgeStyle;rounded=0;orthogonalLoop=1;jettySize=auto;html=1;exitX=1;exitY=0.5;exitDx=0;exitDy=0;entryX=0;entryY=0.5;entryDx=0;entryDy=0;" parent="1" source="_ufB6UjlI4cqtm0IFFnp-26" target="_ufB6UjlI4cqtm0IFFnp-27" edge="1">
          <mxGeometry relative="1" as="geometry" />
        </mxCell>
        <mxCell id="_ufB6UjlI4cqtm0IFFnp-26" value="" style="ellipse;whiteSpace=wrap;html=1;fillColor=#FF0000;" parent="1" vertex="1">
          <mxGeometry x="660" y="160" width="50" height="30" as="geometry" />
        </mxCell>
        <mxCell id="lBaTM03E_NYDaA1DDpVY-4" style="edgeStyle=orthogonalEdgeStyle;rounded=0;orthogonalLoop=1;jettySize=auto;html=1;exitX=1;exitY=0.5;exitDx=0;exitDy=0;" edge="1" parent="1" source="_ufB6UjlI4cqtm0IFFnp-27" target="lBaTM03E_NYDaA1DDpVY-3">
          <mxGeometry relative="1" as="geometry" />
        </mxCell>
        <mxCell id="_ufB6UjlI4cqtm0IFFnp-27" value="" style="ellipse;whiteSpace=wrap;html=1;fillColor=#FF9999;" parent="1" vertex="1">
          <mxGeometry x="740" y="160" width="50" height="30" as="geometry" />
        </mxCell>
        <mxCell id="_ufB6UjlI4cqtm0IFFnp-39" style="edgeStyle=orthogonalEdgeStyle;rounded=0;orthogonalLoop=1;jettySize=auto;html=1;exitX=1;exitY=0.5;exitDx=0;exitDy=0;entryX=0;entryY=0.5;entryDx=0;entryDy=0;" parent="1" source="_ufB6UjlI4cqtm0IFFnp-28" target="_ufB6UjlI4cqtm0IFFnp-29" edge="1">
          <mxGeometry relative="1" as="geometry" />
        </mxCell>
        <mxCell id="_ufB6UjlI4cqtm0IFFnp-28" value="" style="ellipse;whiteSpace=wrap;html=1;fillColor=#994C00;" parent="1" vertex="1">
          <mxGeometry x="500" y="80" width="50" height="30" as="geometry" />
        </mxCell>
        <mxCell id="_ufB6UjlI4cqtm0IFFnp-40" style="edgeStyle=orthogonalEdgeStyle;rounded=0;orthogonalLoop=1;jettySize=auto;html=1;exitX=1;exitY=0.5;exitDx=0;exitDy=0;entryX=0;entryY=0.5;entryDx=0;entryDy=0;" parent="1" source="_ufB6UjlI4cqtm0IFFnp-29" target="_ufB6UjlI4cqtm0IFFnp-30" edge="1">
          <mxGeometry relative="1" as="geometry" />
        </mxCell>
        <mxCell id="_ufB6UjlI4cqtm0IFFnp-29" value="" style="ellipse;whiteSpace=wrap;html=1;fillColor=#994C00;" parent="1" vertex="1">
          <mxGeometry x="580" y="80" width="50" height="30" as="geometry" />
        </mxCell>
        <mxCell id="_ufB6UjlI4cqtm0IFFnp-41" style="edgeStyle=orthogonalEdgeStyle;rounded=0;orthogonalLoop=1;jettySize=auto;html=1;exitX=1;exitY=0.5;exitDx=0;exitDy=0;entryX=0;entryY=0.5;entryDx=0;entryDy=0;" parent="1" source="_ufB6UjlI4cqtm0IFFnp-30" target="_ufB6UjlI4cqtm0IFFnp-31" edge="1">
          <mxGeometry relative="1" as="geometry" />
        </mxCell>
        <mxCell id="_ufB6UjlI4cqtm0IFFnp-30" value="" style="ellipse;whiteSpace=wrap;html=1;fillColor=#994C00;" parent="1" vertex="1">
          <mxGeometry x="670" y="80" width="50" height="30" as="geometry" />
        </mxCell>
        <mxCell id="_ufB6UjlI4cqtm0IFFnp-31" value="" style="ellipse;whiteSpace=wrap;html=1;fillColor=#994C00;" parent="1" vertex="1">
          <mxGeometry x="760" y="80" width="50" height="30" as="geometry" />
        </mxCell>
        <mxCell id="_ufB6UjlI4cqtm0IFFnp-42" value="&lt;b&gt;全量补丁分支:&lt;/b&gt;基于4.00.04B1拉取分支4.00.04P1" style="text;html=1;strokeColor=none;fillColor=none;align=center;verticalAlign=middle;whiteSpace=wrap;rounded=0;" parent="1" vertex="1">
          <mxGeometry x="110" y="160" width="280" height="20" as="geometry" />
        </mxCell>
        <mxCell id="_ufB6UjlI4cqtm0IFFnp-43" value="&lt;b&gt;热补丁分支:&lt;/b&gt;基于4.00.04P1拉取分支4.00.04HP1" style="text;html=1;strokeColor=none;fillColor=none;align=center;verticalAlign=middle;whiteSpace=wrap;rounded=0;" parent="1" vertex="1">
          <mxGeometry x="105" y="85" width="290" height="20" as="geometry" />
        </mxCell>
        <mxCell id="_ufB6UjlI4cqtm0IFFnp-49" value="tag:V4.00.04" style="text;html=1;strokeColor=none;fillColor=none;align=center;verticalAlign=middle;whiteSpace=wrap;rounded=0;" parent="1" vertex="1">
          <mxGeometry x="490" y="210" width="120" height="20" as="geometry" />
        </mxCell>
        <mxCell id="_ufB6UjlI4cqtm0IFFnp-50" value="tag:V4.00.04SP01" style="text;html=1;strokeColor=none;fillColor=none;align=center;verticalAlign=middle;whiteSpace=wrap;rounded=0;" parent="1" vertex="1">
          <mxGeometry x="640" y="210" width="110" height="20" as="geometry" />
        </mxCell>
        <mxCell id="_ufB6UjlI4cqtm0IFFnp-51" value="tag:V4.00.04P1SP01" style="text;html=1;strokeColor=none;fillColor=none;align=center;verticalAlign=middle;whiteSpace=wrap;rounded=0;" parent="1" vertex="1">
          <mxGeometry x="590" y="130" width="110" height="20" as="geometry" />
        </mxCell>
        <mxCell id="_ufB6UjlI4cqtm0IFFnp-52" value="tag:V4.00.04P1SP02" style="text;html=1;strokeColor=none;fillColor=none;align=center;verticalAlign=middle;whiteSpace=wrap;rounded=0;" parent="1" vertex="1">
          <mxGeometry x="730" y="130" width="130" height="20" as="geometry" />
        </mxCell>
        <mxCell id="_ufB6UjlI4cqtm0IFFnp-54" value="tag:V4.00.03" style="text;html=1;strokeColor=none;fillColor=none;align=center;verticalAlign=middle;whiteSpace=wrap;rounded=0;" parent="1" vertex="1">
          <mxGeometry x="480" y="450" width="140" height="20" as="geometry" />
        </mxCell>
        <mxCell id="lBaTM03E_NYDaA1DDpVY-3" value="" style="ellipse;whiteSpace=wrap;html=1;fillColor=#FF9999;" vertex="1" parent="1">
          <mxGeometry x="810" y="160" width="50" height="30" as="geometry" />
        </mxCell>
        <mxCell id="lBaTM03E_NYDaA1DDpVY-5" value="tag:V4.00.04HP1" style="text;html=1;strokeColor=none;fillColor=none;align=center;verticalAlign=middle;whiteSpace=wrap;rounded=0;" vertex="1" parent="1">
          <mxGeometry x="495" y="30" width="110" height="20" as="geometry" />
        </mxCell>
        <mxCell id="lBaTM03E_NYDaA1DDpVY-6" value="tag:V4.00.04B4" style="text;html=1;strokeColor=none;fillColor=none;align=center;verticalAlign=middle;whiteSpace=wrap;rounded=0;" vertex="1" parent="1">
          <mxGeometry x="295" y="210" width="140" height="20" as="geometry" />
        </mxCell>
        <mxCell id="lBaTM03E_NYDaA1DDpVY-23" style="edgeStyle=orthogonalEdgeStyle;rounded=0;orthogonalLoop=1;jettySize=auto;html=1;exitX=1;exitY=0.5;exitDx=0;exitDy=0;" edge="1" parent="1" source="lBaTM03E_NYDaA1DDpVY-11">
          <mxGeometry relative="1" as="geometry">
            <mxPoint x="810" y="257" as="targetPoint" />
          </mxGeometry>
        </mxCell>
        <mxCell id="lBaTM03E_NYDaA1DDpVY-11" value="" style="ellipse;whiteSpace=wrap;html=1;rotation=5;fillColor=#9999FF;" vertex="1" parent="1">
          <mxGeometry x="740" y="240" width="50" height="30" as="geometry" />
        </mxCell>
        <mxCell id="lBaTM03E_NYDaA1DDpVY-24" style="edgeStyle=orthogonalEdgeStyle;rounded=0;orthogonalLoop=1;jettySize=auto;html=1;exitX=1;exitY=0.5;exitDx=0;exitDy=0;" edge="1" parent="1" source="lBaTM03E_NYDaA1DDpVY-19">
          <mxGeometry relative="1" as="geometry">
            <mxPoint x="890" y="257" as="targetPoint" />
          </mxGeometry>
        </mxCell>
        <mxCell id="lBaTM03E_NYDaA1DDpVY-19" value="" style="ellipse;whiteSpace=wrap;html=1;rotation=5;fillColor=#00FF00;" vertex="1" parent="1">
          <mxGeometry x="810" y="240" width="50" height="30" as="geometry" />
        </mxCell>
        <mxCell id="lBaTM03E_NYDaA1DDpVY-20" value="" style="ellipse;whiteSpace=wrap;html=1;rotation=5;fillColor=#00FF00;" vertex="1" parent="1">
          <mxGeometry x="890" y="240" width="50" height="30" as="geometry" />
        </mxCell>
        <mxCell id="lBaTM03E_NYDaA1DDpVY-25" value="tag:V4.00.04SP02" style="text;html=1;strokeColor=none;fillColor=none;align=center;verticalAlign=middle;whiteSpace=wrap;rounded=0;" vertex="1" parent="1">
          <mxGeometry x="800" y="210" width="110" height="20" as="geometry" />
        </mxCell>
      </root>
    </mxGraphModel>
  </diagram>
</mxfile>
